<svg xmlns="http://www.w3.org/2000/svg" xmlns:xlink="http://www.w3.org/1999/xlink" width="120" zoomAndPan="magnify" viewBox="0 0 90 89.999999" height="120" preserveAspectRatio="xMidYMid meet" version="1.0"><defs><clipPath id="5316b76115"><path d="M 3 3.886719 L 86 3.886719 L 86 46 L 3 46 Z M 3 3.886719 " clip-rule="nonzero"/></clipPath><clipPath id="517c5d8238"><path d="M 3.835938 45.046875 L 85.894531 45.046875 L 85.894531 86.382812 L 3.835938 86.382812 Z M 3.835938 45.046875 " clip-rule="nonzero"/></clipPath><clipPath id="ccfd828aac"><path d="M 68 45 L 89.996094 45 L 89.996094 58 L 68 58 Z M 68 45 " clip-rule="nonzero"/></clipPath><clipPath id="154ffb52ab"><path d="M 0.09375 32 L 21.296875 32 L 21.296875 45.921875 L 0.09375 45.921875 Z M 0.09375 32 " clip-rule="nonzero"/></clipPath></defs><g clip-path="url(#5316b76115)"><path fill="#cb83b5" d="M 3.886719 44.703125 C 3.886719 44.855469 3.890625 45.007812 3.890625 45.15625 L 16.601562 45.15625 C 16.601562 45.007812 16.589844 44.855469 16.589844 44.703125 C 16.589844 29.199219 29.117188 16.632812 44.574219 16.632812 C 60.027344 16.632812 72.554688 29.199219 72.554688 44.703125 C 72.554688 44.855469 72.542969 45.007812 72.539062 45.15625 L 85.253906 45.15625 C 85.253906 45.007812 85.253906 44.855469 85.253906 44.703125 C 85.253906 22.160156 67.039062 3.886719 44.574219 3.886719 C 22.101562 3.886719 3.886719 22.160156 3.886719 44.703125 " fill-opacity="1" fill-rule="nonzero"/></g><g clip-path="url(#517c5d8238)"><path fill="#301934" d="M 85.253906 45.609375 C 85.253906 45.457031 85.253906 45.308594 85.253906 45.15625 L 72.539062 45.15625 C 72.542969 45.308594 72.554688 45.457031 72.554688 45.609375 C 72.554688 61.113281 60.027344 73.679688 44.574219 73.679688 C 29.117188 73.679688 16.589844 61.113281 16.589844 45.609375 C 16.589844 45.457031 16.601562 45.308594 16.601562 45.15625 L 3.890625 45.15625 C 3.890625 45.308594 3.886719 45.457031 3.886719 45.609375 C 3.886719 68.152344 22.101562 86.425781 44.574219 86.425781 C 67.039062 86.425781 85.253906 68.152344 85.253906 45.609375 " fill-opacity="1" fill-rule="nonzero"/></g><g clip-path="url(#ccfd828aac)"><path fill="#cb83b5" d="M 78.898438 57.59375 L 88.933594 47.738281 C 89.898438 46.796875 89.226562 45.15625 87.886719 45.15625 L 69.914062 45.15625 C 68.566406 45.15625 67.902344 46.796875 68.863281 47.738281 L 78.898438 57.59375 " fill-opacity="1" fill-rule="nonzero"/></g><g clip-path="url(#154ffb52ab)"><path fill="#301934" d="M 10.582031 32.71875 L 0.546875 42.574219 C -0.414062 43.519531 0.25 45.15625 1.597656 45.15625 L 19.566406 45.15625 C 20.910156 45.15625 21.578125 43.519531 20.617188 42.574219 L 10.582031 32.71875 " fill-opacity="1" fill-rule="nonzero"/></g></svg>