<svg xmlns="http://www.w3.org/2000/svg" xmlns:xlink="http://www.w3.org/1999/xlink" width="120" zoomAndPan="magnify" viewBox="0 0 90 89.999999" height="120" preserveAspectRatio="xMidYMid meet" version="1.0"><defs><clipPath id="edb02f8ec4"><path d="M 63 52.40625 L 90 52.40625 L 90 69.460938 L 63 69.460938 Z M 63 52.40625 " clip-rule="nonzero"/></clipPath><clipPath id="a2bbeacc53"><path d="M 63 57.035156 L 90 57.035156 L 90 59.226562 L 63 59.226562 Z M 63 57.035156 " clip-rule="nonzero"/></clipPath><clipPath id="08f2070a8e"><path d="M 76.667969 35.351562 L 90 35.351562 L 90 54.355469 L 76.667969 54.355469 Z M 76.667969 35.351562 " clip-rule="nonzero"/></clipPath><clipPath id="7245dbb9ca"><path d="M 20.023438 59.714844 L 37.601562 59.714844 L 37.601562 77.160156 L 20.023438 77.160156 Z M 20.023438 59.714844 " clip-rule="nonzero"/></clipPath><clipPath id="68d23c6b9e"><path d="M 67.632812 59.714844 L 85.214844 59.714844 L 85.214844 77.160156 L 67.632812 77.160156 Z M 67.632812 59.714844 " clip-rule="nonzero"/></clipPath><clipPath id="54bc263a0e"><path d="M 0 12.675781 L 31 12.675781 L 31 43 L 0 43 Z M 0 12.675781 " clip-rule="nonzero"/></clipPath></defs><path fill="#cb83b5" d="M 42.722656 41.996094 C 42.484375 41.996094 42.25 41.90625 42.070312 41.734375 L 38.558594 38.335938 L 35.042969 41.734375 C 34.773438 41.996094 34.375 42.070312 34.027344 41.925781 C 33.679688 41.777344 33.453125 41.441406 33.453125 41.0625 L 33.453125 26.917969 C 33.453125 26.402344 33.875 25.984375 34.390625 25.984375 C 34.910156 25.984375 35.328125 26.402344 35.328125 26.917969 L 35.328125 38.851562 L 37.90625 36.359375 C 38.269531 36.007812 38.847656 36.007812 39.210938 36.359375 L 41.785156 38.851562 L 41.785156 26.917969 C 41.785156 26.402344 42.207031 25.984375 42.722656 25.984375 C 43.242188 25.984375 43.660156 26.402344 43.660156 26.917969 L 43.660156 41.0625 C 43.660156 41.4375 43.4375 41.777344 43.089844 41.925781 C 42.96875 41.972656 42.847656 41.996094 42.722656 41.996094 " fill-opacity="1" fill-rule="evenodd"/><path fill="#cb83b5" d="M 53.582031 52.085938 Z M 25.371094 49.519531 C 24.605469 49.519531 23.984375 50.140625 23.984375 50.90625 C 23.984375 51.667969 24.605469 52.289062 25.371094 52.289062 L 44.40625 52.289062 C 44.921875 52.289062 45.34375 52.707031 45.34375 53.222656 L 45.34375 57.210938 C 45.347656 57.640625 45.625 57.820312 45.789062 57.882812 C 46.011719 57.976562 46.339844 57.984375 46.59375 57.730469 L 52.917969 51.421875 C 53.203125 51.136719 53.203125 50.671875 52.917969 50.386719 L 46.59375 44.078125 C 46.273438 43.757812 45.902344 43.875 45.792969 43.921875 C 45.660156 43.972656 45.347656 44.152344 45.34375 44.605469 L 45.34375 48.582031 C 45.34375 49.097656 44.921875 49.515625 44.40625 49.515625 L 25.371094 49.515625 Z M 46.082031 59.816406 C 45.746094 59.816406 45.40625 59.753906 45.085938 59.621094 C 44.101562 59.222656 43.484375 58.304688 43.46875 57.226562 L 43.46875 54.164062 L 25.375 54.164062 C 23.574219 54.164062 22.113281 52.703125 22.113281 50.910156 C 22.113281 49.117188 23.578125 47.65625 25.375 47.65625 L 43.46875 47.65625 L 43.46875 44.605469 C 43.480469 43.519531 44.101562 42.597656 45.085938 42.199219 C 46.066406 41.796875 47.175781 42.019531 47.917969 42.761719 L 54.242188 49.074219 C 55.261719 50.089844 55.257812 51.738281 54.242188 52.753906 L 47.917969 59.0625 C 47.421875 59.554688 46.757812 59.816406 46.082031 59.816406 " fill-opacity="1" fill-rule="evenodd"/><path fill="#cb83b5" d="M 15.003906 21.886719 C 13.234375 21.886719 11.800781 23.320312 11.800781 25.082031 C 11.800781 26.847656 13.238281 28.277344 15.003906 28.277344 C 16.769531 28.277344 18.207031 26.84375 18.207031 25.082031 C 18.207031 23.320312 16.769531 21.886719 15.003906 21.886719 Z M 15.003906 30.148438 C 12.203125 30.148438 9.925781 27.875 9.925781 25.082031 C 9.925781 22.289062 12.203125 20.015625 15.003906 20.015625 C 17.804688 20.015625 20.082031 22.289062 20.082031 25.082031 C 20.082031 27.875 17.804688 30.148438 15.003906 30.148438 " fill-opacity="1" fill-rule="evenodd"/><g clip-path="url(#edb02f8ec4)"><path fill="#301934" d="M 85.863281 69.421875 L 84.257812 69.421875 C 83.742188 69.421875 83.320312 69.003906 83.320312 68.488281 C 83.320312 67.96875 83.742188 67.550781 84.257812 67.550781 L 85.863281 67.550781 C 87.113281 67.550781 88.132812 66.535156 88.132812 65.289062 L 88.132812 54.277344 L 64.875 54.277344 L 64.875 67.550781 L 68.75 67.550781 C 69.269531 67.550781 69.6875 67.96875 69.6875 68.488281 C 69.6875 69.003906 69.269531 69.421875 68.75 69.421875 L 63.9375 69.421875 C 63.421875 69.421875 63 69.003906 63 68.488281 L 63 53.339844 C 63 52.824219 63.421875 52.40625 63.9375 52.40625 L 89.066406 52.40625 C 89.585938 52.40625 90.003906 52.824219 90.003906 53.339844 L 90.003906 65.289062 C 90.007812 67.570312 88.148438 69.421875 85.863281 69.421875 " fill-opacity="1" fill-rule="evenodd"/></g><g clip-path="url(#a2bbeacc53)"><path fill="#301934" d="M 89.070312 59.0625 L 63.941406 59.0625 C 63.421875 59.0625 63.003906 58.640625 63.003906 58.125 C 63.003906 57.609375 63.421875 57.191406 63.941406 57.191406 L 89.070312 57.191406 C 89.585938 57.191406 90.007812 57.609375 90.007812 58.125 C 90.007812 58.640625 89.585938 59.0625 89.070312 59.0625 " fill-opacity="1" fill-rule="evenodd"/></g><g clip-path="url(#08f2070a8e)"><path fill="#301934" d="M 89.070312 54.277344 C 88.765625 54.277344 88.46875 54.128906 88.289062 53.859375 L 76.988281 36.859375 C 76.703125 36.429688 76.820312 35.847656 77.253906 35.5625 C 77.683594 35.277344 78.265625 35.394531 78.550781 35.824219 L 89.851562 52.824219 C 90.136719 53.253906 90.019531 53.835938 89.585938 54.121094 C 89.429688 54.226562 89.246094 54.277344 89.070312 54.277344 " fill-opacity="1" fill-rule="evenodd"/></g><path fill="#301934" d="M 64.878906 35.410156 L 79.335938 35.410156 L 75.871094 32.066406 L 64.878906 32.066406 Z M 81.648438 37.28125 L 63.941406 37.28125 C 63.421875 37.28125 63.003906 36.863281 63.003906 36.34375 L 63.003906 31.128906 C 63.003906 30.613281 63.421875 30.195312 63.941406 30.195312 L 76.253906 30.195312 C 76.496094 30.195312 76.730469 30.289062 76.90625 30.457031 L 82.300781 35.671875 C 82.574219 35.9375 82.660156 36.34375 82.519531 36.695312 C 82.375 37.050781 82.03125 37.28125 81.648438 37.28125 " fill-opacity="1" fill-rule="evenodd"/><path fill="#301934" d="M 21.054688 69.421875 L 17.390625 69.421875 C 14.550781 69.421875 12.238281 67.117188 12.238281 64.28125 L 12.238281 41.582031 C 12.238281 41.0625 12.65625 40.644531 13.175781 40.644531 C 13.691406 40.644531 14.113281 41.0625 14.113281 41.582031 L 14.113281 64.28125 C 14.113281 66.085938 15.582031 67.550781 17.390625 67.550781 L 21.054688 67.550781 C 21.570312 67.550781 21.992188 67.96875 21.992188 68.488281 C 21.992188 69.003906 21.570312 69.421875 21.054688 69.421875 Z M 63.941406 69.421875 L 36.558594 69.421875 C 36.042969 69.421875 35.621094 69.003906 35.621094 68.488281 C 35.621094 67.96875 36.042969 67.550781 36.558594 67.550781 L 63.003906 67.550781 L 63.003906 31.125 C 63.003906 29.320312 61.535156 27.855469 59.722656 27.855469 L 29.050781 27.855469 C 28.53125 27.855469 28.113281 27.4375 28.113281 26.917969 C 28.113281 26.402344 28.53125 25.984375 29.050781 25.984375 L 59.722656 25.984375 C 62.5625 25.984375 64.875 28.292969 64.875 31.125 L 64.875 68.488281 C 64.878906 69.003906 64.457031 69.421875 63.941406 69.421875 " fill-opacity="1" fill-rule="evenodd"/><g clip-path="url(#7245dbb9ca)"><path fill="#301934" d="M 28.804688 61.6875 C 25.046875 61.6875 21.988281 64.738281 21.988281 68.488281 C 21.988281 72.242188 25.046875 75.292969 28.804688 75.292969 C 32.566406 75.292969 35.621094 72.242188 35.621094 68.488281 C 35.621094 64.738281 32.566406 61.6875 28.804688 61.6875 Z M 28.804688 77.160156 C 24.011719 77.160156 20.113281 73.269531 20.113281 68.488281 C 20.113281 63.707031 24.011719 59.8125 28.804688 59.8125 C 33.597656 59.8125 37.496094 63.707031 37.496094 68.488281 C 37.496094 73.269531 33.597656 77.160156 28.804688 77.160156 " fill-opacity="1" fill-rule="evenodd"/></g><g clip-path="url(#68d23c6b9e)"><path fill="#301934" d="M 76.503906 61.6875 C 72.746094 61.6875 69.6875 64.738281 69.6875 68.488281 C 69.6875 72.242188 72.746094 75.292969 76.503906 75.292969 C 80.261719 75.292969 83.320312 72.242188 83.320312 68.488281 C 83.320312 64.738281 80.261719 61.6875 76.503906 61.6875 Z M 76.503906 77.160156 C 71.710938 77.160156 67.8125 73.269531 67.8125 68.488281 C 67.8125 63.707031 71.710938 59.8125 76.503906 59.8125 C 81.296875 59.8125 85.195312 63.707031 85.195312 68.488281 C 85.195312 73.269531 81.296875 77.160156 76.503906 77.160156 " fill-opacity="1" fill-rule="evenodd"/></g><path fill="#301934" d="M 28.804688 66.472656 C 27.695312 66.472656 26.789062 67.378906 26.789062 68.488281 C 26.789062 69.597656 27.695312 70.5 28.804688 70.5 C 29.917969 70.5 30.824219 69.597656 30.824219 68.488281 C 30.824219 67.378906 29.917969 66.472656 28.804688 66.472656 Z M 28.804688 72.371094 C 26.660156 72.371094 24.914062 70.628906 24.914062 68.488281 C 24.914062 66.347656 26.660156 64.605469 28.804688 64.605469 C 30.953125 64.605469 32.699219 66.347656 32.699219 68.488281 C 32.699219 70.628906 30.953125 72.371094 28.804688 72.371094 " fill-opacity="1" fill-rule="evenodd"/><path fill="#301934" d="M 76.503906 66.472656 C 75.394531 66.472656 74.488281 67.378906 74.488281 68.488281 C 74.488281 69.597656 75.394531 70.5 76.503906 70.5 C 77.617188 70.5 78.523438 69.597656 78.523438 68.488281 C 78.523438 67.378906 77.617188 66.472656 76.503906 66.472656 Z M 76.503906 72.371094 C 74.359375 72.371094 72.613281 70.628906 72.613281 68.488281 C 72.613281 66.347656 74.359375 64.605469 76.503906 64.605469 C 78.652344 64.605469 80.398438 66.347656 80.398438 68.488281 C 80.398438 70.628906 78.652344 72.371094 76.503906 72.371094 " fill-opacity="1" fill-rule="evenodd"/><path fill="#cb83b5" d="M 72.734375 49.671875 C 72.496094 49.671875 72.253906 49.578125 72.074219 49.398438 L 67.777344 45.113281 C 67.410156 44.75 67.410156 44.15625 67.777344 43.789062 C 68.144531 43.425781 68.734375 43.425781 69.101562 43.789062 L 73.398438 48.078125 C 73.765625 48.445312 73.765625 49.035156 73.398438 49.402344 C 73.214844 49.582031 72.976562 49.671875 72.734375 49.671875 " fill-opacity="1" fill-rule="evenodd"/><path fill="#cb83b5" d="M 77.945312 47.601562 C 77.703125 47.601562 77.460938 47.511719 77.28125 47.332031 L 72.984375 43.042969 C 72.617188 42.675781 72.617188 42.085938 72.984375 41.71875 C 73.351562 41.355469 73.945312 41.355469 74.3125 41.71875 L 78.609375 46.007812 C 78.972656 46.371094 78.972656 46.964844 78.609375 47.332031 C 78.421875 47.511719 78.183594 47.601562 77.945312 47.601562 " fill-opacity="1" fill-rule="evenodd"/><g clip-path="url(#54bc263a0e)"><path fill="#cb83b5" d="M 15.003906 14.5625 C 7.765625 14.5625 1.875 20.4375 1.875 27.664062 C 1.875 34.886719 7.765625 40.761719 15.003906 40.761719 C 22.242188 40.761719 28.132812 34.886719 28.132812 27.664062 C 28.132812 20.4375 22.242188 14.5625 15.003906 14.5625 Z M 15.003906 42.632812 C 6.730469 42.632812 0 35.917969 0 27.664062 C 0 19.40625 6.730469 12.691406 15.003906 12.691406 C 23.277344 12.691406 30.007812 19.40625 30.007812 27.664062 C 30.007812 35.917969 23.277344 42.632812 15.003906 42.632812 " fill-opacity="1" fill-rule="evenodd"/></g><path fill="#cb83b5" d="M 15.003906 18.152344 C 11.171875 18.152344 8.058594 21.261719 8.058594 25.082031 C 8.058594 27.941406 11.496094 32.210938 14.003906 35.328125 C 14.351562 35.761719 14.6875 36.179688 15.003906 36.578125 C 15.320312 36.175781 15.65625 35.757812 16.003906 35.328125 C 18.515625 32.210938 21.949219 27.941406 21.949219 25.082031 C 21.953125 21.261719 18.835938 18.152344 15.003906 18.152344 Z M 15.003906 39.046875 C 14.707031 39.046875 14.429688 38.910156 14.25 38.667969 C 13.777344 38.035156 13.175781 37.289062 12.539062 36.5 C 9.707031 32.980469 6.179688 28.601562 6.179688 25.082031 C 6.179688 20.230469 10.136719 16.28125 15 16.28125 C 19.863281 16.28125 23.824219 20.230469 23.824219 25.082031 C 23.824219 28.601562 20.296875 32.980469 17.460938 36.5 C 16.824219 37.289062 16.226562 38.035156 15.75 38.667969 C 15.578125 38.910156 15.296875 39.046875 15.003906 39.046875 " fill-opacity="1" fill-rule="evenodd"/></svg>