<svg xmlns="http://www.w3.org/2000/svg" xmlns:xlink="http://www.w3.org/1999/xlink" width="120" zoomAndPan="magnify" viewBox="0 0 90 89.999999" height="120" preserveAspectRatio="xMidYMid meet" version="1.0"><defs><clipPath id="112ba2e989"><path d="M 0 16 L 89 16 L 89 79.632812 L 0 79.632812 Z M 0 16 " clip-rule="nonzero"/></clipPath><clipPath id="836f094e32"><path d="M 18 10.632812 L 41 10.632812 L 41 30 L 18 30 Z M 18 10.632812 " clip-rule="nonzero"/></clipPath></defs><g clip-path="url(#112ba2e989)"><path fill="#301934" d="M 87.714844 36.144531 C 87.359375 35.855469 86.589844 35.722656 83.726562 35.339844 C 81.695312 35.070312 78.910156 34.703125 78.160156 34.296875 C 76.960938 33.644531 71.851562 29.035156 69.984375 27.3125 C 69.960938 27.289062 69.488281 26.667969 70.496094 22.679688 C 71.039062 20.542969 71.726562 18.542969 71.734375 18.523438 C 71.855469 18.179688 71.671875 17.800781 71.328125 17.679688 C 68.316406 16.625 65.710938 16.746094 63.578125 18.039062 C 60.492188 19.910156 59.351562 23.683594 59.003906 25.214844 C 56.519531 24.789062 47.320312 23.210938 41.996094 22.304688 C 41.636719 22.242188 41.296875 22.484375 41.234375 22.847656 C 41.175781 23.207031 41.414062 23.550781 41.777344 23.609375 C 47.972656 24.667969 59.417969 26.632812 59.417969 26.632812 C 59.589844 26.664062 59.769531 26.621094 59.914062 26.515625 C 60.058594 26.410156 60.15625 26.253906 60.179688 26.078125 C 60.1875 26.027344 60.953125 21.175781 64.269531 19.167969 C 65.902344 18.179688 67.921875 18.03125 70.273438 18.730469 C 70.015625 19.523438 69.570312 20.941406 69.195312 22.445312 C 68.121094 26.734375 68.574219 27.820312 69.089844 28.289062 C 69.789062 28.933594 75.972656 34.617188 77.535156 35.464844 C 78.429688 35.945312 80.59375 36.261719 83.554688 36.65625 C 84.859375 36.828125 86.472656 37.042969 86.890625 37.195312 C 87.3125 37.835938 88.386719 41.976562 86.722656 45.003906 C 85.476562 47.269531 83.71875 49.261719 82.308594 50.863281 C 81.886719 51.339844 81.488281 51.789062 81.136719 52.210938 C 78.992188 52.039062 76.207031 51.363281 74.457031 49.214844 C 74.226562 48.929688 73.8125 48.890625 73.53125 49.121094 C 73.246094 49.351562 73.203125 49.769531 73.433594 50.054688 C 75.242188 52.277344 77.925781 53.140625 80.191406 53.445312 C 80.140625 53.515625 80.089844 53.589844 80.035156 53.671875 C 78.609375 55.742188 74.832031 61.238281 67.125 65.65625 C 67.105469 65.667969 67.089844 65.683594 67.074219 65.695312 C 67.0625 65.703125 67.046875 65.710938 67.035156 65.722656 C 67.011719 65.742188 66.992188 65.761719 66.976562 65.78125 C 66.964844 65.792969 66.953125 65.800781 66.945312 65.8125 C 66.925781 65.835938 66.910156 65.859375 66.898438 65.878906 C 66.890625 65.894531 66.878906 65.90625 66.871094 65.921875 C 66.859375 65.941406 66.851562 65.964844 66.84375 65.988281 C 66.835938 66.007812 66.828125 66.023438 66.824219 66.039062 C 66.816406 66.0625 66.8125 66.085938 66.808594 66.105469 C 66.804688 66.125 66.800781 66.144531 66.796875 66.167969 C 66.796875 66.1875 66.796875 66.210938 66.796875 66.234375 C 66.796875 66.253906 66.796875 66.273438 66.796875 66.296875 C 66.800781 66.316406 66.804688 66.339844 66.808594 66.363281 C 66.8125 66.378906 66.8125 66.394531 66.816406 66.414062 L 69.003906 74.277344 C 69.472656 75.964844 68.488281 77.71875 66.808594 78.191406 C 65.992188 78.417969 65.140625 78.316406 64.402344 77.898438 C 63.667969 77.484375 63.140625 76.804688 62.910156 75.992188 C 62.910156 75.988281 62.910156 75.988281 62.910156 75.984375 L 61.050781 69.304688 C 61.050781 69.296875 61.046875 69.292969 61.042969 69.285156 C 61.039062 69.277344 61.039062 69.269531 61.035156 69.257812 C 61.03125 69.246094 61.023438 69.230469 61.015625 69.21875 C 61.007812 69.199219 61 69.179688 60.988281 69.160156 C 60.980469 69.140625 60.96875 69.125 60.953125 69.105469 C 60.941406 69.089844 60.929688 69.070312 60.914062 69.050781 C 60.902344 69.039062 60.886719 69.023438 60.875 69.011719 C 60.855469 68.992188 60.839844 68.976562 60.820312 68.964844 C 60.804688 68.953125 60.792969 68.941406 60.777344 68.933594 C 60.757812 68.917969 60.734375 68.90625 60.710938 68.894531 C 60.695312 68.886719 60.683594 68.882812 60.667969 68.875 C 60.644531 68.863281 60.617188 68.855469 60.59375 68.847656 C 60.578125 68.84375 60.5625 68.839844 60.550781 68.839844 C 60.523438 68.832031 60.496094 68.828125 60.464844 68.824219 C 60.453125 68.824219 60.4375 68.824219 60.421875 68.824219 C 60.394531 68.824219 60.367188 68.824219 60.335938 68.828125 C 60.320312 68.828125 60.308594 68.832031 60.292969 68.835938 C 60.273438 68.839844 60.253906 68.839844 60.238281 68.84375 C 60.226562 68.847656 60.214844 68.855469 60.203125 68.859375 C 60.199219 68.859375 60.195312 68.859375 60.191406 68.863281 C 59.179688 69.230469 58.125 69.574219 57.058594 69.882812 C 48.238281 72.4375 33.734375 73.988281 21.890625 69.960938 C 21.886719 69.957031 21.882812 69.957031 21.878906 69.957031 C 21.871094 69.957031 21.863281 69.949219 21.855469 69.949219 C 21.835938 69.941406 21.8125 69.941406 21.789062 69.9375 C 21.777344 69.933594 21.761719 69.929688 21.746094 69.929688 C 21.71875 69.925781 21.691406 69.925781 21.664062 69.925781 C 21.648438 69.925781 21.632812 69.925781 21.617188 69.929688 C 21.589844 69.929688 21.566406 69.9375 21.539062 69.941406 C 21.523438 69.945312 21.507812 69.949219 21.488281 69.953125 C 21.464844 69.960938 21.445312 69.96875 21.421875 69.980469 C 21.40625 69.984375 21.386719 69.992188 21.371094 70 C 21.351562 70.011719 21.332031 70.023438 21.3125 70.039062 C 21.296875 70.046875 21.28125 70.058594 21.265625 70.070312 C 21.246094 70.085938 21.234375 70.101562 21.21875 70.117188 C 21.203125 70.128906 21.1875 70.144531 21.171875 70.160156 C 21.160156 70.179688 21.148438 70.195312 21.136719 70.214844 C 21.125 70.230469 21.109375 70.25 21.097656 70.269531 C 21.089844 70.289062 21.082031 70.308594 21.074219 70.328125 C 21.066406 70.34375 21.058594 70.359375 21.050781 70.375 C 21.050781 70.382812 21.050781 70.386719 21.046875 70.394531 C 21.046875 70.398438 21.042969 70.402344 21.042969 70.410156 L 19.492188 75.984375 C 19.492188 75.988281 19.492188 75.988281 19.488281 75.988281 C 19.261719 76.804688 18.730469 77.484375 17.996094 77.898438 C 17.261719 78.316406 16.40625 78.417969 15.59375 78.191406 C 13.914062 77.71875 12.929688 75.964844 13.394531 74.28125 C 13.394531 74.28125 13.398438 74.277344 13.398438 74.277344 L 15.289062 67.464844 C 15.292969 67.453125 15.292969 67.441406 15.296875 67.429688 C 15.300781 67.410156 15.304688 67.386719 15.308594 67.367188 C 15.3125 67.34375 15.3125 67.320312 15.3125 67.296875 C 15.3125 67.277344 15.3125 67.257812 15.3125 67.242188 C 15.308594 67.214844 15.304688 67.191406 15.300781 67.164062 C 15.296875 67.148438 15.296875 67.132812 15.289062 67.117188 C 15.285156 67.09375 15.277344 67.066406 15.265625 67.042969 C 15.261719 67.027344 15.253906 67.015625 15.246094 67 C 15.234375 66.976562 15.222656 66.953125 15.207031 66.929688 C 15.199219 66.917969 15.191406 66.902344 15.183594 66.890625 C 15.164062 66.867188 15.144531 66.847656 15.125 66.824219 C 15.117188 66.816406 15.105469 66.808594 15.097656 66.796875 C 15.074219 66.777344 15.046875 66.757812 15.019531 66.738281 C 15.015625 66.734375 15.011719 66.730469 15.003906 66.726562 C 8.691406 62.746094 4.800781 56.796875 3.441406 49.042969 C 0.964844 34.914062 11.308594 28.441406 17.695312 25.84375 C 18.03125 25.703125 18.195312 25.316406 18.058594 24.976562 C 17.921875 24.640625 17.535156 24.476562 17.199219 24.613281 C 15.050781 25.488281 12.484375 26.773438 10.066406 28.609375 C 10.046875 28.59375 10.027344 28.578125 10.007812 28.570312 C 8.71875 27.890625 6.75 26.660156 5.894531 25.132812 C 7.980469 26.074219 9.007812 25.15625 9.390625 24.640625 C 10.402344 23.273438 10.058594 20.648438 8.738281 19.625 C 8.355469 19.332031 6.988281 18.527344 5.347656 20.582031 C 4.847656 21.210938 4.503906 21.851562 4.316406 22.496094 C 3.410156 21.726562 2.40625 20.710938 1.320312 19.453125 C 1.082031 19.175781 0.664062 19.148438 0.390625 19.386719 C 0.113281 19.628906 0.0859375 20.046875 0.324219 20.324219 C 1.738281 21.957031 3.03125 23.21875 4.175781 24.078125 C 4.4375 26.460938 6.800781 28.300781 8.949219 29.503906 C 4.242188 33.5 0.472656 39.746094 2.140625 49.273438 C 3.535156 57.242188 7.488281 63.398438 13.886719 67.582031 L 12.125 73.914062 C 12.125 73.917969 12.125 73.917969 12.125 73.921875 C 11.460938 76.3125 12.855469 78.800781 15.238281 79.46875 C 15.640625 79.582031 16.046875 79.636719 16.453125 79.636719 C 17.210938 79.636719 17.964844 79.441406 18.644531 79.054688 C 19.691406 78.464844 20.441406 77.5 20.765625 76.34375 C 20.765625 76.339844 20.765625 76.339844 20.765625 76.335938 L 22.128906 71.433594 C 27.304688 73.09375 32.933594 73.75 38.375 73.75 C 45.550781 73.75 52.394531 72.613281 57.425781 71.15625 C 58.285156 70.90625 59.140625 70.636719 59.96875 70.347656 L 61.636719 76.332031 C 61.636719 76.335938 61.636719 76.339844 61.636719 76.34375 C 61.960938 77.5 62.710938 78.464844 63.753906 79.054688 C 64.4375 79.441406 65.1875 79.636719 65.949219 79.636719 C 66.355469 79.636719 66.761719 79.582031 67.164062 79.46875 C 69.542969 78.800781 70.941406 76.3125 70.277344 73.921875 C 70.277344 73.921875 70.277344 73.917969 70.277344 73.917969 L 68.226562 66.546875 C 75.894531 62.027344 79.679688 56.523438 81.121094 54.425781 C 81.308594 54.15625 81.457031 53.941406 81.566406 53.792969 C 81.671875 53.652344 81.796875 53.488281 81.941406 53.316406 C 82.324219 52.84375 82.796875 52.308594 83.296875 51.742188 C 84.753906 50.09375 86.5625 48.039062 87.882812 45.644531 C 89.933594 41.910156 88.589844 36.84375 87.714844 36.144531 Z M 5.484375 23.382812 C 5.546875 22.742188 5.847656 22.078125 6.378906 21.410156 C 6.816406 20.863281 7.4375 20.292969 7.929688 20.675781 C 8.621094 21.207031 8.953125 23.003906 8.328125 23.847656 C 7.71875 24.675781 6.296875 23.921875 5.484375 23.382812 Z M 5.484375 23.382812 " fill-opacity="1" fill-rule="nonzero"/></g><path fill="#301934" d="M 67.207031 35.375 C 66.929688 35.136719 66.511719 35.171875 66.277344 35.453125 C 65.613281 36.238281 65.25 37.230469 65.25 38.242188 C 65.25 40.703125 67.347656 42.703125 69.929688 42.703125 C 71.839844 42.703125 73.539062 41.613281 74.261719 39.925781 C 74.40625 39.589844 74.25 39.199219 73.914062 39.054688 C 73.578125 38.910156 73.191406 39.066406 73.046875 39.402344 C 72.535156 40.601562 71.3125 41.375 69.929688 41.375 C 68.078125 41.375 66.570312 39.96875 66.570312 38.242188 C 66.570312 37.535156 66.816406 36.863281 67.285156 36.308594 C 67.523438 36.03125 67.488281 35.609375 67.207031 35.375 Z M 67.207031 35.375 " fill-opacity="1" fill-rule="nonzero"/><path fill="#301934" d="M 25.445312 29.328125 C 25.347656 29.351562 25.253906 29.375 25.160156 29.402344 C 24.726562 29.519531 24.316406 29.640625 23.933594 29.765625 C 21.40625 30.582031 19.855469 31.488281 19.792969 31.523438 C 19.476562 31.710938 19.371094 32.117188 19.558594 32.433594 C 19.679688 32.644531 19.898438 32.761719 20.128906 32.761719 C 20.242188 32.761719 20.355469 32.730469 20.460938 32.667969 C 20.476562 32.660156 21.957031 31.796875 24.328125 31.03125 C 24.332031 31.03125 24.332031 31.03125 24.335938 31.027344 C 24.390625 31.011719 24.4375 30.996094 24.488281 30.980469 C 24.574219 30.953125 24.65625 30.929688 24.742188 30.902344 C 24.800781 30.882812 24.863281 30.863281 24.921875 30.847656 C 25.0625 30.804688 25.207031 30.765625 25.355469 30.722656 C 25.378906 30.714844 25.402344 30.710938 25.425781 30.703125 L 25.460938 30.695312 C 25.613281 30.652344 25.769531 30.609375 25.929688 30.570312 C 25.960938 30.5625 25.988281 30.554688 26.019531 30.546875 C 26.027344 30.546875 26.03125 30.546875 26.039062 30.542969 C 26.042969 30.542969 26.046875 30.542969 26.054688 30.539062 C 27.234375 30.25 28.582031 30.007812 30.046875 29.898438 C 30.097656 29.894531 30.148438 29.890625 30.199219 29.886719 C 30.398438 29.871094 30.597656 29.863281 30.800781 29.851562 C 30.859375 29.851562 30.917969 29.847656 30.976562 29.847656 C 31.472656 29.828125 31.980469 29.828125 32.496094 29.847656 C 32.507812 29.847656 32.515625 29.847656 32.523438 29.847656 C 33.039062 29.867188 33.5625 29.90625 34.097656 29.96875 C 34.136719 29.972656 34.175781 29.976562 34.21875 29.980469 C 34.460938 30.011719 34.707031 30.042969 34.953125 30.082031 C 35.007812 30.089844 35.0625 30.101562 35.117188 30.109375 C 35.347656 30.148438 35.574219 30.1875 35.804688 30.234375 C 35.828125 30.242188 35.851562 30.246094 35.875 30.25 C 35.878906 30.25 35.878906 30.25 35.882812 30.25 C 36.824219 30.441406 37.765625 30.707031 38.671875 31.039062 C 39.015625 31.160156 39.394531 30.984375 39.519531 30.640625 C 39.640625 30.292969 39.464844 29.914062 39.121094 29.789062 C 38.152344 29.4375 37.148438 29.15625 36.140625 28.949219 C 35.964844 28.914062 35.789062 28.878906 35.617188 28.847656 C 35.59375 28.84375 35.570312 28.839844 35.546875 28.835938 C 35.402344 28.8125 35.257812 28.789062 35.113281 28.765625 C 35.0625 28.757812 35.015625 28.75 34.964844 28.742188 C 34.847656 28.726562 34.726562 28.710938 34.609375 28.695312 C 34.550781 28.6875 34.488281 28.675781 34.425781 28.671875 C 34.320312 28.65625 34.214844 28.644531 34.109375 28.632812 C 34.042969 28.625 33.972656 28.617188 33.902344 28.613281 C 33.808594 28.601562 33.714844 28.59375 33.625 28.585938 C 33.453125 28.574219 33.277344 28.558594 33.105469 28.550781 C 33.066406 28.546875 33.023438 28.542969 32.980469 28.542969 C 32.859375 28.535156 32.738281 28.527344 32.617188 28.523438 C 32.589844 28.523438 32.558594 28.523438 32.527344 28.519531 C 32.261719 28.511719 31.992188 28.503906 31.722656 28.503906 C 31.597656 28.503906 31.476562 28.507812 31.355469 28.507812 C 31.332031 28.511719 31.308594 28.511719 31.285156 28.511719 C 31.238281 28.511719 31.1875 28.511719 31.140625 28.511719 C 31.132812 28.511719 31.125 28.511719 31.117188 28.511719 C 30.585938 28.527344 30.070312 28.558594 29.585938 28.601562 C 29.472656 28.609375 29.359375 28.621094 29.25 28.632812 C 29.238281 28.636719 29.226562 28.636719 29.214844 28.636719 C 29.136719 28.644531 29.058594 28.652344 29 28.660156 L 28.890625 28.675781 C 28.769531 28.6875 28.652344 28.703125 28.523438 28.722656 C 28.421875 28.734375 28.324219 28.746094 28.21875 28.761719 C 28.097656 28.78125 27.972656 28.796875 27.867188 28.816406 C 27.835938 28.824219 27.800781 28.828125 27.765625 28.835938 C 27.664062 28.851562 27.566406 28.867188 27.464844 28.886719 C 27.460938 28.886719 27.457031 28.886719 27.453125 28.886719 C 27.328125 28.910156 27.203125 28.933594 27.078125 28.957031 C 27.070312 28.957031 27.0625 28.960938 27.054688 28.960938 C 26.960938 28.980469 26.867188 28.996094 26.789062 29.015625 C 26.671875 29.039062 26.554688 29.0625 26.441406 29.085938 L 26.042969 29.175781 C 26.023438 29.183594 26.003906 29.1875 25.984375 29.191406 L 25.964844 29.195312 C 25.960938 29.195312 25.949219 29.199219 25.945312 29.199219 C 25.886719 29.214844 25.832031 29.230469 25.773438 29.242188 C 25.726562 29.253906 25.683594 29.265625 25.636719 29.277344 C 25.570312 29.292969 25.503906 29.308594 25.445312 29.328125 Z M 25.445312 29.328125 " fill-opacity="1" fill-rule="nonzero"/><g clip-path="url(#836f094e32)"><path fill="#cb83b5" d="M 21.773438 29.363281 C 21.902344 29.492188 22.070312 29.554688 22.242188 29.554688 C 22.410156 29.554688 22.578125 29.492188 22.707031 29.363281 C 22.964844 29.101562 22.964844 28.683594 22.707031 28.425781 C 21.546875 27.257812 20.699219 25.808594 20.257812 24.234375 C 20.019531 23.382812 19.898438 22.5 19.898438 21.605469 C 19.898438 16.285156 24.210938 11.953125 29.511719 11.953125 C 34.8125 11.953125 39.125 16.285156 39.125 21.605469 C 39.125 21.914062 39.109375 22.226562 39.082031 22.527344 C 38.914062 24.328125 38.238281 26.042969 37.136719 27.484375 C 36.914062 27.773438 36.96875 28.191406 37.257812 28.414062 C 37.546875 28.636719 37.960938 28.582031 38.183594 28.292969 C 39.4375 26.652344 40.203125 24.703125 40.398438 22.652344 C 40.429688 22.308594 40.445312 21.957031 40.445312 21.605469 C 40.445312 15.554688 35.539062 10.628906 29.511719 10.628906 C 23.484375 10.628906 18.578125 15.554688 18.578125 21.605469 C 18.578125 22.621094 18.714844 23.628906 18.988281 24.59375 C 19.488281 26.386719 20.453125 28.035156 21.773438 29.363281 Z M 21.773438 29.363281 " fill-opacity="1" fill-rule="nonzero"/></g><path fill="#cb83b5" d="M 29.738281 14.375 C 29.371094 14.375 29.078125 14.671875 29.078125 15.035156 L 29.078125 16.527344 C 27.167969 16.636719 25.644531 18.226562 25.644531 20.171875 C 25.644531 22.1875 27.277344 23.828125 29.285156 23.828125 L 29.738281 23.828125 C 31.015625 23.828125 32.058594 24.871094 32.058594 26.15625 C 32.058594 26.398438 32.019531 26.636719 31.949219 26.859375 C 31.832031 27.207031 32.023438 27.582031 32.367188 27.695312 C 32.4375 27.71875 32.507812 27.730469 32.574219 27.730469 C 32.851562 27.730469 33.109375 27.550781 33.203125 27.273438 C 33.320312 26.917969 33.378906 26.539062 33.378906 26.15625 C 33.378906 24.140625 31.746094 22.5 29.738281 22.5 L 29.285156 22.5 C 28.007812 22.5 26.964844 21.457031 26.964844 20.171875 C 26.964844 18.886719 28.007812 17.84375 29.285156 17.84375 L 32.265625 17.84375 C 32.628906 17.84375 32.925781 17.546875 32.925781 17.179688 C 32.925781 16.8125 32.628906 16.515625 32.265625 16.515625 L 30.398438 16.515625 L 30.398438 15.035156 C 30.398438 14.671875 30.101562 14.375 29.738281 14.375 Z M 29.738281 14.375 " fill-opacity="1" fill-rule="nonzero"/></svg>