<svg xmlns="http://www.w3.org/2000/svg" xmlns:xlink="http://www.w3.org/1999/xlink" width="500" zoomAndPan="magnify" viewBox="0 0 375 374.999991" height="500" preserveAspectRatio="xMidYMid meet" version="1.0"><path fill="#cb83b5" d="M 279.84375 236.59375 C 265.039062 252.296875 242.550781 266.695312 221.007812 270.984375 C 222.570312 260.878906 221.5625 249.429688 218.023438 237.160156 C 227.585938 225.160156 237.289062 211.078125 246.734375 197.371094 C 258.847656 179.78125 271.378906 161.59375 283.117188 148.625 C 286.601562 144.769531 289.894531 141.507812 293.007812 138.828125 C 296.097656 136.164062 300.808594 136.6875 303.238281 139.964844 C 322.902344 166.492188 303.636719 211.355469 279.84375 236.59375 Z M 215.660156 281.039062 C 214.175781 284.828125 209.035156 285.328125 206.867188 281.882812 C 202.898438 275.578125 197.328125 268.785156 190.042969 261.324219 C 176.5 247.433594 158.539062 232.800781 141.164062 218.652344 C 123.1875 204.007812 104.59375 188.863281 91.578125 175.03125 C 87.710938 170.921875 84.46875 167.074219 81.839844 163.476562 C 79.226562 159.894531 80.203125 154.847656 83.960938 152.5 C 114.378906 133.53125 161.253906 158.289062 186.496094 186.234375 C 208.816406 210.945312 226.933594 252.222656 215.660156 281.039062 Z M 198.601562 301.707031 C 168.339844 320.789062 122.527344 294.878906 97.222656 266.867188 C 74.535156 241.746094 55.207031 200.390625 67.355469 171.804688 C 68.71875 168.601562 73.046875 168.078125 75.152344 170.847656 C 88.398438 188.292969 111.289062 206.945312 134.980469 226.242188 C 152.140625 240.21875 169.882812 254.671875 183.039062 268.160156 C 191.8125 277.152344 197.863281 285.007812 201.289062 291.886719 C 203.03125 295.371094 201.894531 299.628906 198.601562 301.707031 Z M 128.585938 141.15625 C 131.960938 111.976562 147.847656 75.683594 173.441406 67.226562 C 176.308594 66.277344 179.128906 68.800781 178.53125 71.757812 C 174.746094 90.390625 175.703125 115.992188 176.699219 142.496094 C 177.089844 152.96875 177.488281 163.625 177.566406 173.804688 C 169.746094 166.9375 160.96875 160.761719 151.945312 155.828125 C 143.886719 151.425781 135.867188 148.132812 128.128906 146.019531 C 128.25 144.371094 128.398438 142.75 128.585938 141.15625 Z M 199.222656 160.59375 C 220.609375 137.90625 257.148438 117.105469 284.289062 126.148438 C 287.328125 127.160156 288.132812 131.097656 285.742188 133.234375 C 270.703125 146.683594 255.277344 169.078125 239.308594 192.253906 C 231.144531 204.105469 222.78125 216.238281 214.558594 226.953125 C 208.621094 211.734375 199.257812 196.464844 188.4375 184.484375 C 187.058594 182.960938 185.628906 181.457031 184.148438 179.972656 C 188.726562 172.851562 193.886719 166.253906 199.222656 160.59375 Z M 185.214844 84.863281 C 185.675781 79.988281 186.328125 75.671875 187.167969 71.894531 C 188.003906 68.136719 191.851562 65.882812 195.535156 66.988281 C 219.1875 74.101562 230.816406 103.761719 232.726562 131.929688 C 232.128906 132.242188 231.53125 132.558594 230.9375 132.882812 C 218.757812 139.523438 206.820312 148.730469 197.324219 158.804688 C 193.40625 162.957031 189.582031 167.625 186.050781 172.539062 C 185.953125 162.613281 185.570312 152.304688 185.1875 142.175781 C 184.4375 122.066406 183.65625 101.273438 185.214844 84.863281 Z M 187.484375 -0.0078125 C 83.933594 -0.0078125 -0.0117188 83.9375 -0.0117188 187.484375 C -0.0117188 291.035156 83.933594 374.980469 187.484375 374.980469 C 291.035156 374.980469 374.980469 291.035156 374.980469 187.484375 C 374.980469 83.9375 291.035156 -0.0078125 187.484375 -0.0078125 " fill-opacity="1" fill-rule="nonzero"/></svg>